<svg xmlns="http://www.w3.org/2000/svg" viewBox="0 0 5 1"><svg xmlns="http://www.w3.org/2000/svg" fill="currentColor" stroke="none" viewBox="0 0 72 72" height="1" width="1" class="_logo_1hpqv_23" style="pointer-events: none;" x="0"><title>Logo</title><path fill-rule="evenodd" clip-rule="evenodd" d="M31.1902 0L40.8098 0C50.2682 0 54.7318 1.18817 58.9036 3.4193C63.0755 5.65043 66.3496 8.92452 68.5807 13.0964C70.8118 17.2682 72 21.7318 72 31.1902V40.8098C72 50.2682 70.8118 54.7318 68.5807 58.9036C66.3496 63.0755 63.0755 66.3496 58.9036 68.5807C54.7318 70.8118 50.2682 72 40.8098 72H31.1902C21.7318 72 17.2682 70.8118 13.0964 68.5807C8.92452 66.3496 5.65043 63.0755 3.4193 58.9036C1.18817 54.7318 0 50.2682 0 40.8098L0 31.1902C0 21.7318 1.18817 17.2682 3.4193 13.0964C5.65043 8.92452 8.92452 5.65043 13.0964 3.4193C17.2682 1.18817 21.7318 0 31.1902 0Z" fill="#44a3dd"></path><path fill-rule="evenodd" clip-rule="evenodd" d="M12.7822 25H28.4336C29.6091 25 30.6905 25.6473 31.2517 26.6869L45.1875 52.5H26.5398C25.3643 52.5 24.283 51.8527 23.7217 50.8131L11.2165 27.6498C10.7467 26.7795 11.0667 25.6905 11.9314 25.2176C12.1925 25.0748 12.485 25 12.7822 25Z" fill="#BEE5F7"></path><path fill-rule="evenodd" clip-rule="evenodd" d="M59.2178 25C59.515 25 59.8074 25.0748 60.0686 25.2176C60.907 25.6762 61.2334 26.714 60.824 27.5701L60.7834 27.6498L48.2782 50.8131C47.7351 51.8192 46.7049 52.4578 45.5736 52.498L45.4601 52.5H27.1031H26.5398L26.4261 52.498C25.8349 52.4769 25.2712 52.2924 24.7903 51.9774C25.0312 52.1166 25.304 52.2064 25.5948 52.2328C25.6257 52.2356 25.8751 52.2589 26.1525 52.1839C26.2699 52.1522 26.703 52.0504 27.162 51.6183C27.3679 51.4245 27.7377 50.7859 27.7377 50.7859L40.7482 26.6869C41.2914 25.6808 42.3216 25.0422 43.4529 25.002L43.5663 25H59.2178Z" fill="white"></path></svg><svg xmlns="http://www.w3.org/2000/svg" fill="currentColor" stroke="none" viewBox="0 0 192 48" height="1" width="4" class="_logoText_1hpqv_35" style="pointer-events: none;" x="1"><title>LogoText</title><path d="M163.432 19.1353H165.811V14.981H170.282V19.1353H173.263V22.4334H170.282V29.7907C170.282 30.6787 170.441 31.3129 170.758 31.6935C171.096 32.074 171.582 32.2643 172.217 32.2643C172.322 32.2643 172.449 32.2643 172.597 32.2643C172.766 32.2431 172.988 32.2114 173.263 32.1691V35.499C172.84 35.6047 172.439 35.6787 172.058 35.7209C171.699 35.7632 171.276 35.7844 170.79 35.7844C169.711 35.7844 168.845 35.6364 168.189 35.3404C167.555 35.0444 167.026 34.5793 166.604 33.945C166.286 33.4799 166.075 32.962 165.969 32.3911C165.864 31.8203 165.811 30.9852 165.811 29.8858V22.4334H163.432V19.1353Z"></path><path d="M145.67 27.3171C145.67 26.0063 145.86 24.8224 146.241 23.7653C146.642 22.7082 147.203 21.8097 147.922 21.0698C148.64 20.3087 149.507 19.7273 150.522 19.3256C151.558 18.9027 152.71 18.6913 153.979 18.6913C155.247 18.6913 156.399 18.9027 157.435 19.3256C158.471 19.7273 159.349 20.3087 160.067 21.0698C160.786 21.8097 161.336 22.7082 161.716 23.7653C162.118 24.8224 162.319 26.0063 162.319 27.3171C162.319 28.6068 162.118 29.7907 161.716 30.8689C161.336 31.926 160.786 32.8351 160.067 33.5962C159.349 34.3362 158.471 34.9176 157.435 35.3404C156.399 35.7421 155.247 35.9429 153.979 35.9429C152.71 35.9429 151.558 35.7421 150.522 35.3404C149.507 34.9176 148.64 34.3362 147.922 33.5962C147.203 32.8351 146.642 31.926 146.241 30.8689C145.86 29.7907 145.67 28.6068 145.67 27.3171ZM150.332 27.3171C150.332 28.9662 150.638 30.2558 151.251 31.1861C151.864 32.0951 152.774 32.5497 153.979 32.5497C155.184 32.5497 156.093 32.0951 156.706 31.1861C157.34 30.2558 157.657 28.9662 157.657 27.3171C157.657 25.6681 157.34 24.389 156.706 23.4799C156.093 22.5497 155.184 22.0846 153.979 22.0846C152.774 22.0846 151.864 22.5497 151.251 23.4799C150.638 24.389 150.332 25.6681 150.332 27.3171Z"></path><path d="M126.869 12.4757H134.068C135.611 12.4757 136.879 12.5603 137.873 12.7294C138.888 12.8985 139.702 13.1734 140.315 13.5539C141.224 14.1036 141.922 14.7801 142.408 15.5835C142.894 16.3869 143.137 17.3277 143.137 18.4059C143.137 19.8013 142.767 20.9641 142.027 21.8943C141.288 22.8034 140.156 23.4165 138.634 23.7336V23.8605C140.22 24.0507 141.425 24.6427 142.249 25.6364C143.095 26.6089 143.518 27.8034 143.518 29.2199C143.518 30.4884 143.211 31.5983 142.598 32.5497C141.985 33.5011 141.14 34.2304 140.061 34.7378C139.342 35.0761 138.529 35.2875 137.619 35.3721C136.731 35.4567 135.548 35.4989 134.068 35.4989H126.869V12.4757ZM131.594 25.7632V31.6934H134.385C134.934 31.6934 135.463 31.6512 135.97 31.5666C136.499 31.482 136.964 31.334 137.366 31.1226C137.789 30.8901 138.127 30.5835 138.381 30.203C138.634 29.8013 138.761 29.2939 138.761 28.6808C138.761 28.0888 138.645 27.6025 138.412 27.222C138.201 26.8414 137.894 26.5455 137.493 26.334C137.112 26.1226 136.657 25.9746 136.129 25.8901C135.6 25.8055 135.019 25.7632 134.385 25.7632H131.594ZM131.594 16.3129V21.9577H134.385C134.85 21.9577 135.326 21.926 135.812 21.8626C136.319 21.778 136.774 21.63 137.175 21.4186C137.577 21.2072 137.905 20.9112 138.159 20.5307C138.433 20.1501 138.571 19.6638 138.571 19.0719C138.571 18.5011 138.465 18.0359 138.254 17.6765C138.042 17.3171 137.746 17.0423 137.366 16.852C136.985 16.6406 136.541 16.5032 136.034 16.4397C135.526 16.3552 134.977 16.3129 134.385 16.3129H131.594Z"></path><path d="M100.641 27.3171C100.641 26.0063 100.832 24.8224 101.212 23.7653C101.614 22.7082 102.174 21.8097 102.893 21.0698C103.612 20.3087 104.478 19.7273 105.493 19.3256C106.529 18.9027 107.681 18.6913 108.95 18.6913C110.218 18.6913 111.371 18.9027 112.407 19.3256C113.443 19.7273 114.32 20.3087 115.039 21.0698C115.758 21.8097 116.307 22.7082 116.688 23.7653C117.089 24.8224 117.29 26.0063 117.29 27.3171C117.29 28.6068 117.089 29.7907 116.688 30.8689C116.307 31.926 115.758 32.8351 115.039 33.5962C114.32 34.3362 113.443 34.9176 112.407 35.3404C111.371 35.7421 110.218 35.9429 108.95 35.9429C107.681 35.9429 106.529 35.7421 105.493 35.3404C104.478 34.9176 103.612 34.3362 102.893 33.5962C102.174 32.8351 101.614 31.926 101.212 30.8689C100.832 29.7907 100.641 28.6068 100.641 27.3171ZM105.303 27.3171C105.303 28.9662 105.61 30.2558 106.223 31.1861C106.836 32.0951 107.745 32.5497 108.95 32.5497C110.155 32.5497 111.064 32.0951 111.677 31.1861C112.311 30.2558 112.629 28.9662 112.629 27.3171C112.629 25.6681 112.311 24.389 111.677 23.4799C111.064 22.5497 110.155 22.0846 108.95 22.0846C107.745 22.0846 106.836 22.5497 106.223 23.4799C105.61 24.389 105.303 25.6681 105.303 27.3171Z"></path><path d="M89.1689 19.1353H91.5474V14.981H96.0188V19.1353H98.9998V22.4334H96.0188V29.7907C96.0188 30.6787 96.1774 31.3129 96.4945 31.6935C96.8328 32.074 97.3191 32.2643 97.9533 32.2643C98.059 32.2643 98.1859 32.2643 98.3339 32.2643C98.503 32.2431 98.725 32.2114 98.9998 32.1691V35.499C98.577 35.6047 98.1753 35.6787 97.7947 35.7209C97.4353 35.7632 97.0125 35.7844 96.5262 35.7844C95.448 35.7844 94.5812 35.6364 93.9258 35.3404C93.2916 35.0444 92.763 34.5793 92.3402 33.945C92.0231 33.4799 91.8117 32.962 91.7059 32.3911C91.6002 31.8203 91.5474 30.9852 91.5474 29.8858V22.4334H89.1689V19.1353Z"></path><path d="M71.9545 41.8732V19.1353H76.1088V21.3235C76.7008 20.5201 77.4407 19.907 78.3287 19.4841C79.2166 19.0613 80.1363 18.8499 81.0877 18.8499C82.1025 18.8499 83.0221 19.0402 83.8466 19.4207C84.6923 19.8013 85.4111 20.3615 86.0031 21.1015C86.6162 21.8203 87.0813 22.7083 87.3984 23.7653C87.7367 24.8013 87.9058 25.9852 87.9058 27.3171C87.9058 30.0655 87.2927 32.1691 86.0665 33.6279C84.8403 35.0867 83.1807 35.8161 81.0877 35.8161C80.1997 35.8161 79.3329 35.6364 78.4872 35.277C77.6416 34.9176 76.9545 34.3679 76.4259 33.6279V41.8732H71.9545ZM79.6923 32.4228C80.834 32.4228 81.7219 31.9683 82.3562 31.0592C82.9904 30.1501 83.3075 28.9028 83.3075 27.3171C83.3075 25.7949 82.9904 24.5687 82.3562 23.6385C81.7431 22.7083 80.8974 22.2431 79.8192 22.2431C78.7409 22.2431 77.8847 22.6765 77.2505 23.5433C76.6162 24.4102 76.2991 25.6681 76.2991 27.3171C76.2991 28.8605 76.5951 30.0973 77.187 31.0275C77.779 31.9577 78.6141 32.4228 79.6923 32.4228Z"></path><path d="M58.559 19.1353L60.6521 27.3171C61.0115 28.7125 61.3286 30.1078 61.6034 31.5032H61.8254L62.7451 27.3171L65.0601 19.1353H69.7852L64.3624 34.7378C63.855 36.1755 63.3688 37.3594 62.9036 38.2896C62.4597 39.241 61.9734 39.9915 61.4449 40.5412C60.9163 41.0909 60.3244 41.4715 59.669 41.6829C59.0347 41.8943 58.2842 42 57.4174 42C56.9311 42 56.4554 41.9894 55.9903 41.9683C55.5252 41.9471 55.0495 41.8943 54.5633 41.8097V38.2579C54.8804 38.3848 55.1869 38.4588 55.4829 38.4799C55.8 38.5011 56.1066 38.5116 56.4026 38.5116C56.7831 38.5116 57.1425 38.4693 57.4808 38.3848C57.8191 38.3002 58.1151 38.1416 58.3688 37.9091C58.6225 37.6765 58.8233 37.37 58.9713 36.9894C59.1193 36.6089 59.1933 36.1121 59.1933 35.4989L53.5485 19.1353H58.559Z"></path><path d="M42.8131 35.499V19.1353H47.0309L46.9992 21.5772C47.422 20.8161 47.9822 20.1924 48.6799 19.7061C49.3776 19.2199 50.2021 18.9768 51.1535 18.9768C51.4072 18.9768 51.7137 18.9873 52.0732 19.0085C52.4326 19.0296 52.7285 19.0719 52.9611 19.1353V23.0042C52.7285 22.9408 52.4854 22.8985 52.2317 22.8774C51.9992 22.8562 51.756 22.8457 51.5023 22.8457C50.0436 22.8457 48.9759 23.3002 48.2994 24.2093C47.6228 25.0973 47.2846 26.5666 47.2846 28.6173V35.499H42.8131Z"></path><path d="M20 24.3044C20 22.4651 20.2643 20.7949 20.7928 19.2939C21.3425 17.7717 22.093 16.4715 23.0444 15.3932C23.9958 14.315 25.1057 13.4799 26.3742 12.888C27.6638 12.296 29.0486 12 30.5285 12C31.8816 12 33.1184 12.2008 34.2389 12.6025C35.3806 12.9831 36.3636 13.5433 37.1882 14.2833C38.0127 15.0021 38.6681 15.8795 39.1543 16.9154C39.6406 17.9302 39.9154 19.0825 39.9789 20.3721H35.1269C35.0846 19.6956 34.9366 19.0825 34.6829 18.5328C34.4503 17.9619 34.1332 17.4757 33.7315 17.074C33.3298 16.6512 32.8541 16.3235 32.3044 16.0909C31.7548 15.8584 31.1417 15.7421 30.4651 15.7421C29.6195 15.7421 28.8478 15.9535 28.1501 16.3763C27.4524 16.778 26.8499 17.3488 26.3425 18.0888C25.8562 18.8288 25.4757 19.7061 25.2008 20.7209C24.926 21.7357 24.7886 22.8457 24.7886 24.0507C24.7886 25.2558 24.926 26.3658 25.2008 27.3806C25.4757 28.3742 25.8562 29.2305 26.3425 29.9493C26.8288 30.6681 27.4207 31.2283 28.1184 31.63C28.8161 32.0317 29.5877 32.2326 30.4334 32.2326C31.8922 32.2326 33.0127 31.7992 33.7949 30.9324C34.5983 30.0444 35.074 28.871 35.222 27.4123H40.1374C40.0106 28.6173 39.7146 29.7484 39.2495 30.8055C38.7844 31.8414 38.1501 32.7505 37.3467 33.5328C36.5433 34.2939 35.5603 34.8964 34.3975 35.3404C33.2558 35.7632 31.9345 35.9746 30.4334 35.9746C28.8901 35.9746 27.4736 35.7209 26.1839 35.2135C24.8943 34.685 23.7949 33.9239 22.8858 32.9302C21.9767 31.9154 21.2685 30.6892 20.7611 29.2516C20.2537 27.7928 20 26.1438 20 24.3044Z"></path></svg></svg>